PathFileType	4	(X/Y/Z)	/tmp/tmpjnq7zxqp/Me/MarkerData/slow walking_segment_0.trc
DataRate	CameraRate	NumFrames	NumMarkers	Units	OrigDataRate	OrigDataStartFrame	OrigNumFrames
100.092	100.092	10	38	m	100.092	543	1086
Frame#	Time	C7			CLAV			LANK			LASI			LBHD			LELB			LFHD			LFIN			LFRM			LHEE			LKNE			LPSI			LSHO			LTHI			LTIB			LTOE			LUPA			LWRA			LWRB			RANK			RBAK			RBHD			RELB			RFHD			RFIN			RFRM			RHEE			RKNE			RPSI			RSHO			RTHI			RTIB			RTOE			RUPA			RWRA			RWRB			STRN			T10		
		X1	Y1	Z1	X2	Y2	Z2	X3	Y3	Z3	X4	Y4	Z4	X5	Y5	Z5	X6	Y6	Z6	X7	Y7	Z7	X8	Y8	Z8	X9	Y9	Z9	X10	Y10	Z10	X11	Y11	Z11	X12	Y12	Z12	X13	Y13	Z13	X14	Y14	Z14	X15	Y15	Z15	X16	Y16	Z16	X17	Y17	Z17	X18	Y18	Z18	X19	Y19	Z19	X20	Y20	Z20	X21	Y21	Z21	X22	Y22	Z22	X23	Y23	Z23	X24	Y24	Z24	X25	Y25	Z25	X26	Y26	Z26	X27	Y27	Z27	X28	Y28	Z28	X29	Y29	Z29	X30	Y30	Z30	X31	Y31	Z31	X32	Y32	Z32	X33	Y33	Z33	X34	Y34	Z34	X35	Y35	Z35	X36	Y36	Z36	X37	Y37	Z37	X38	Y38	Z38

544	5.425	0.0120001	1.45853	-0.044286	-0.156457	1.39027	-0.0263956	0.161576	0.252693	0.130016	-0.0871614	0.993047	0.13836	-0.0631473	1.60864	0.0425168	-0.0474704	1.10022	0.235887	-0.173326	1.67847	0.0205205	-0.0993459	0.771259	0.249858	-0.0333971	0.94309	0.228502	0.216667	0.291731	0.0610971	-0.172917	0.480001	0.176716	0.0385658	1.00055	-0.00230323	-0.0515678	1.45082	0.137397	-0.152216	0.67108	0.181849	0.044662	0.350482	0.163131	0.0843067	0.0979688	0.0910766	-0.0652693	1.28621	0.23094	-0.111042	0.8599	0.195016	-0.0477448	0.854472	0.234397	-0.108838	0.095116	-0.111533	0.0426189	1.32002	-0.163435	-0.0550089	1.60031	-0.106322	-0.126148	1.09625	-0.295584	-0.163897	1.66128	-0.107497	-0.252961	0.77181	-0.293589	-0.143441	1.0087	-0.300832	-0.0339821	0.0589769	-0.0505722	-0.159321	0.494477	-0.140705	0.0322172	0.998011	-0.0657816	-0.0848624	1.4387	-0.208225	-0.166406	0.822405	-0.193193	-0.119012	0.368613	-0.164976	-0.271181	0.0626275	-0.0556215	-0.128023	1.19502	-0.281758	-0.224793	0.86739	-0.238343	-0.188897	0.8463	-0.298177	-0.20372	1.23442	-0.0118214	0.0477895	1.22808	-0.0367369
545	5.43499	0.0122178	1.45929	-0.0458371	-0.155974	1.39087	-0.0265614	0.151322	0.251649	0.129181	-0.0866212	0.994842	0.136964	-0.0628993	1.60939	0.0418325	-0.0411118	1.10064	0.233992	-0.173322	1.67902	0.0201026	-0.0860534	0.770689	0.248152	-0.0240257	0.943978	0.2265	0.206976	0.287947	0.0589536	-0.180069	0.48314	0.17625	0.0394267	1.00153	-0.00324163	-0.0493133	1.45108	0.136291	-0.156773	0.673898	0.181179	0.0360782	0.350994	0.162161	0.0704672	0.0977462	0.0937836	-0.0607165	1.28647	0.229838	-0.0998166	0.859098	0.193511	-0.0365473	0.855122	0.232589	-0.100876	0.0951332	-0.111644	0.0421208	1.32078	-0.165259	-0.055188	1.60112	-0.107138	-0.130797	1.09764	-0.296646	-0.164247	1.66188	-0.107933	-0.262608	0.775273	-0.293021	-0.14936	1.01028	-0.301721	-0.0260956	0.0590021	-0.0506561	-0.152889	0.494137	-0.141475	0.0328801	0.998737	-0.0667259	-0.0857553	1.43954	-0.209001	-0.164039	0.821965	-0.194408	-0.111205	0.368799	-0.165554	-0.263236	0.0626904	-0.0556151	-0.131421	1.19636	-0.282458	-0.232243	0.870373	-0.238153	-0.19729	0.848607	-0.298269	-0.202499	1.23486	-0.0109762	0.0482442	1.22872	-0.0387093
546	5.44498	0.0124036	1.46001	-0.047398	-0.155457	1.39143	-0.0266956	0.140367	0.249221	0.128463	-0.0863083	0.996559	0.135554	-0.0627264	1.61007	0.0411241	-0.0346732	1.10115	0.232061	-0.173274	1.6795	0.0198027	-0.0731018	0.770345	0.246269	-0.0147837	0.944982	0.224495	0.197011	0.282808	0.0570181	-0.186742	0.486222	0.175764	0.0403436	1.00245	-0.00409688	-0.04693	1.45134	0.135087	-0.160832	0.676707	0.180614	0.0273782	0.3507	0.1612	0.0556777	0.096905	0.096339	-0.0560551	1.2868	0.228781	-0.088829	0.858538	0.191919	-0.0256739	0.855952	0.230744	-0.0929244	0.0951672	-0.111756	0.0417674	1.32141	-0.166941	-0.0553702	1.60185	-0.10783	-0.13536	1.0991	-0.297615	-0.164532	1.66242	-0.108267	-0.272138	0.778885	-0.292356	-0.155171	1.01195	-0.302459	-0.0180958	0.0591268	-0.0507321	-0.146431	0.493863	-0.142269	0.0335173	0.999374	-0.0675284	-0.0864721	1.44042	-0.209746	-0.161266	0.821564	-0.195813	-0.103533	0.369051	-0.166153	-0.255374	0.0626091	-0.0557273	-0.134698	1.19773	-0.283098	-0.239701	0.873458	-0.237839	-0.205609	0.851061	-0.298227	-0.201124	1.2353	-0.0100696	0.0487	1.22933	-0.0407112
547	5.45497	0.01262	1.46066	-0.0489334	-0.1549	1.39192	-0.0268236	0.129322	0.245611	0.127734	-0.0862198	0.998121	0.134177	-0.0625269	1.61063	0.0403908	-0.0280452	1.10172	0.230309	-0.173148	1.67992	0.0195986	-0.0605166	0.770181	0.244292	-0.0056777	0.94605	0.222488	0.186742	0.276401	0.0553114	-0.19293	0.489192	0.1752	0.0413198	1.0033	-0.00484918	-0.0446632	1.45157	0.133925	-0.164445	0.679422	0.180175	0.0187	0.349604	0.16039	0.0400262	0.0954982	0.0987307	-0.0513265	1.28715	0.227632	-0.0784531	0.858142	0.190277	-0.0150081	0.856847	0.22898	-0.0850347	0.0951626	-0.111898	0.0415259	1.32196	-0.168581	-0.0554947	1.60246	-0.108458	-0.139793	1.10063	-0.29848	-0.164793	1.6629	-0.108523	-0.281497	0.782619	-0.29156	-0.160851	1.01373	-0.303079	-0.0101041	0.0593036	-0.0508047	-0.139951	0.493638	-0.143085	0.0342483	0.999983	-0.0681989	-0.087198	1.44133	-0.21047	-0.158381	0.82116	-0.197148	-0.0959981	0.369345	-0.166746	-0.247541	0.0625239	-0.0558797	-0.137844	1.19916	-0.283732	-0.247161	0.876657	-0.237389	-0.21376	0.853642	-0.298036	-0.199693	1.23576	-0.00918413	0.0491638	1.2299	-0.0426745
548	5.46496	0.0129091	1.4612	-0.0504175	-0.154302	1.39234	-0.0269402	0.118054	0.241035	0.127074	-0.085741	0.999546	0.132701	-0.062091	1.61105	0.0398918	-0.021325	1.10235	0.228564	-0.17295	1.68022	0.0194873	-0.0483893	0.770197	0.242337	0.00328138	0.947148	0.220507	0.176134	0.268763	0.0538083	-0.198673	0.492028	0.174526	0.0421761	1.004	-0.00548247	-0.0425227	1.45176	0.132787	-0.167829	0.681989	0.179818	0.0100376	0.347722	0.15971	0.0235536	0.0936026	0.100946	-0.0465326	1.28749	0.226408	-0.0681512	0.857927	0.188528	-0.00452941	0.857781	0.227274	-0.0771598	0.0951416	-0.112109	0.0413034	1.32251	-0.170205	-0.0556399	1.603	-0.108996	-0.144104	1.10218	-0.299246	-0.165019	1.6633	-0.108686	-0.290664	0.786492	-0.29067	-0.166392	1.01555	-0.303603	-0.00213712	0.0594625	-0.0508784	-0.13347	0.493415	-0.143893	0.0350479	1.00055	-0.0687188	-0.087914	1.44221	-0.211129	-0.155399	0.820781	-0.198413	-0.0886408	0.369648	-0.167296	-0.239571	0.0624363	-0.0563028	-0.140831	1.20061	-0.28436	-0.254328	0.879968	-0.236867	-0.221698	0.856299	-0.297692	-0.198308	1.23622	-0.00841417	0.0496298	1.23041	-0.0446026
549	5.47495	0.0132716	1.46164	-0.0518455	-0.153675	1.39271	-0.0270376	0.106393	0.235603	0.126568	-0.0852613	1.00073	0.131195	-0.0616374	1.61137	0.0394582	-0.0145685	1.103	0.226832	-0.172699	1.68043	0.0194853	-0.036645	0.770311	0.240232	0.0121257	0.948276	0.218544	0.165149	0.259967	0.0525143	-0.203993	0.494652	0.173845	0.0432324	1.00461	-0.00599038	-0.0404986	1.45191	0.131646	-0.171021	0.684388	0.179577	0.00135696	0.345141	0.159063	0.00621053	0.0914501	0.103028	-0.0417129	1.28784	0.225188	-0.0580388	0.857907	0.186818	0.00562981	0.85881	0.225459	-0.0692927	0.0951801	-0.112314	0.0410131	1.3231	-0.171839	-0.0558206	1.60348	-0.109411	-0.148273	1.10372	-0.299934	-0.165215	1.66365	-0.108773	-0.299632	0.790445	-0.289721	-0.171792	1.01738	-0.304015	0.00570192	0.0595222	-0.0508901	-0.127043	0.493185	-0.144657	0.0359495	1.00104	-0.069114	-0.0886186	1.44306	-0.211719	-0.152351	0.820373	-0.199623	-0.0813931	0.369918	-0.16775	-0.231631	0.0623707	-0.0564927	-0.143668	1.20206	-0.284968	-0.261286	0.883338	-0.236277	-0.229467	0.859	-0.297195	-0.19712	1.23667	-0.0079133	0.0500125	1.23084	-0.0465404
550	5.48494	0.0136917	1.46198	-0.0532112	-0.153039	1.39299	-0.0271196	0.0941961	0.229335	0.126185	-0.0849461	1.00175	0.130016	-0.0612129	1.61158	0.0390757	-0.00780702	1.10364	0.225088	-0.172386	1.68052	0.0195685	-0.0252519	0.770461	0.237973	0.0208167	0.949377	0.216558	0.15366	0.250316	0.0516426	-0.208812	0.497067	0.173227	0.0441866	1.00509	-0.00639048	-0.0385438	1.45199	0.13055	-0.173821	0.686498	0.179232	-0.00748063	0.341965	0.158443	-0.0121318	0.0893279	0.105099	-0.0369033	1.28815	0.223954	-0.0481825	0.858012	0.185129	0.0154797	0.859862	0.223543	-0.0614271	0.0952363	-0.112433	0.0406265	1.32375	-0.173541	-0.0559326	1.6039	-0.109792	-0.152274	1.10524	-0.300558	-0.165357	1.66393	-0.108768	-0.308373	0.794424	-0.288669	-0.177058	1.01919	-0.304343	0.0135951	0.0595411	-0.0508689	-0.120677	0.492942	-0.14532	0.0369334	1.00143	-0.0693904	-0.0892814	1.44387	-0.212218	-0.149222	0.819841	-0.200839	-0.0741614	0.370174	-0.168092	-0.223708	0.0621502	-0.056725	-0.146331	1.20347	-0.285613	-0.26812	0.886739	-0.235523	-0.23711	0.861702	-0.296561	-0.196186	1.23706	-0.00777806	0.0503388	1.23121	-0.048506
551	5.49494	0.0141083	1.46224	-0.0544969	-0.152412	1.39315	-0.0272109	0.081247	0.222148	0.125875	-0.0845857	1.0025	0.128946	-0.0607449	1.61171	0.0387325	-0.00108839	1.10425	0.223339	-0.172027	1.68053	0.0197319	-0.0143768	0.770637	0.235771	0.0293553	0.950403	0.214537	0.141588	0.240006	0.0511941	-0.213146	0.499305	0.172684	0.0450453	1.00538	-0.00668839	-0.0366586	1.45196	0.129505	-0.176223	0.688434	0.178797	-0.0163735	0.33822	0.157923	-0.0314205	0.0873191	0.107218	-0.0321548	1.28841	0.222782	-0.0386545	0.858181	0.183437	0.0251075	0.860832	0.221651	-0.0535281	0.0952922	-0.112478	0.0400327	1.32439	-0.175289	-0.0559205	1.60425	-0.110169	-0.156112	1.10669	-0.301158	-0.165421	1.66415	-0.108665	-0.316929	0.798394	-0.287468	-0.182196	1.02097	-0.304615	0.0217724	0.0597818	-0.0508883	-0.114419	0.492677	-0.145863	0.0379569	1.0017	-0.0695909	-0.0898737	1.4446	-0.212603	-0.146154	0.819153	-0.202053	-0.0669501	0.370445	-0.168321	-0.215809	0.062035	-0.0568686	-0.148838	1.20483	-0.286302	-0.27488	0.890134	-0.234559	-0.244548	0.86438	-0.295829	-0.195564	1.23731	-0.00806067	0.0506727	1.23149	-0.0504652
552	5.50493	0.0144998	1.46241	-0.0556402	-0.151823	1.39322	-0.0272768	0.0678238	0.214348	0.125739	-0.0841188	1.00299	0.127967	-0.0602085	1.61175	0.0384388	0.0055806	1.1048	0.221585	-0.171613	1.68046	0.0199776	-0.00400115	0.770871	0.233556	0.0377654	0.951331	0.212433	0.128905	0.228977	0.0509066	-0.21702	0.501382	0.172186	0.0459147	1.00549	-0.00692053	-0.0348481	1.45181	0.128522	-0.178144	0.690156	0.178224	-0.0253622	0.333906	0.157577	-0.050797	0.0845944	0.108813	-0.0275238	1.28853	0.221566	-0.0294266	0.858377	0.181724	0.034558	0.861763	0.219651	-0.0456042	0.0953097	-0.1125	0.0392377	1.32495	-0.177025	-0.0557838	1.60456	-0.110564	-0.159795	1.10804	-0.301728	-0.165421	1.66431	-0.108491	-0.325307	0.802348	-0.286122	-0.187191	1.02269	-0.30483	0.0301646	0.0602217	-0.050975	-0.10821	0.492422	-0.146269	0.0390599	1.00185	-0.0697564	-0.0904926	1.44529	-0.212952	-0.143186	0.818523	-0.203121	-0.05985	0.370717	-0.16848	-0.20787	0.0620112	-0.0568577	-0.15118	1.20611	-0.286994	-0.281473	0.893524	-0.233621	-0.251759	0.867017	-0.295054	-0.195188	1.23737	-0.0087057	0.0510178	1.23171	-0.0523805
553	5.51492	0.0148762	1.46252	-0.0566642	-0.151245	1.3932	-0.027302	0.0540081	0.206158	0.125813	-0.0835493	1.0033	0.1271	-0.0596339	1.61169	0.0381904	0.0122762	1.10527	0.220037	-0.171141	1.68031	0.0202758	0.00601172	0.771219	0.231249	0.0460307	0.952149	0.210287	0.115463	0.217241	0.0507542	-0.220527	0.503253	0.171692	0.0467866	1.00543	-0.00713802	-0.0331213	1.45155	0.127624	-0.179592	0.691631	0.177515	-0.0345844	0.329115	0.157494	-0.0704265	0.0816839	0.11018	-0.0229917	1.28851	0.220316	-0.0204672	0.858578	0.179958	0.0438275	0.862555	0.217604	-0.0376891	0.095327	-0.112496	0.0385826	1.32555	-0.178768	-0.0556458	1.60478	-0.110844	-0.16333	1.10929	-0.302228	-0.165379	1.66441	-0.108257	-0.333479	0.806229	-0.284658	-0.192023	1.0243	-0.304965	0.0379835	0.0603163	-0.0511036	-0.102097	0.492183	-0.146526	0.0401687	1.00183	-0.0699217	-0.0911168	1.44589	-0.213252	-0.140299	0.817904	-0.204032	-0.0529094	0.370971	-0.168591	-0.199921	0.0619943	-0.0567388	-0.153392	1.20728	-0.287641	-0.287913	0.896898	-0.232709	-0.258965	0.869708	-0.294174	-0.194932	1.2373	-0.00955662	0.0513526	1.23187	-0.0542541
